<?xml version="1.0" encoding="UTF-8"?>
<svg width="85px" height="26px" viewBox="0 0 85 26" version="1.1" xmlns="http://www.w3.org/2000/svg" xmlns:xlink="http://www.w3.org/1999/xlink">
    <!-- Generator: Sketch 41 (35326) - http://www.bohemiancoding.com/sketch -->
    <title>ICPNA logo</title>
    <desc>Created with Sketch.</desc>
    <defs></defs>
    <g id="Page-1" stroke="none" stroke-width="1" fill="none" fill-rule="evenodd">
        <g id="ICPNA-logo">
            <g id="texto" transform="translate(0.000000, 23.000000)" fill="#294A95">
                <polygon id="Shape" points="0 2.48 0 0.0706667 0.476 0.0706667 0.476 2.48"></polygon>
                <path d="M2.55,2.48 L1.7,1.1626667 C1.6405,1.076 1.564,0.9546667 1.5385,0.894 L1.5385,1.4226667 L1.5385,2.48 L1.0285,2.48 L1.0285,0.0706667 L1.479,0.0706667 L2.329,1.3446667 C2.3885,1.4313333 2.465,1.5526667 2.4905,1.6133333 L2.4905,1.0846667 L2.4905,0.0706667 L2.958,0.0706667 L2.958,2.48 L2.55,2.48 Z" id="Shape"></path>
                <path d="M4.25,2.5233333 C3.89302792,2.540039 3.55046515,2.3783355 3.332,2.09 L3.672,1.778 C3.82149431,1.9589954 4.0434892,2.0610113 4.2755,2.0553333 C4.556,2.0553333 4.6835,1.9773333 4.6835,1.7953333 C4.6835,1.6133333 4.5985,1.57 4.1565,1.466 C3.7145,1.362 3.417,1.2233333 3.417,0.7466667 C3.417,0.27 3.7995,0.036 4.267,0.036 C4.59082245,0.0331146 4.90031087,0.1719596 5.117,0.4173333 L4.777,0.7553333 C4.64364041,0.5999554 4.45244884,0.5087736 4.25,0.504 C3.995,0.504 3.91,0.6166667 3.91,0.7206667 C3.91,0.8246667 4.012,0.92 4.386,1.0066667 C4.76,1.0933333 5.1765,1.2233333 5.1765,1.752 C5.1765,2.2806667 4.9215,2.5233333 4.25,2.5233333 Z" id="Shape"></path>
                <polygon id="Shape" points="6.528 0.5473333 6.528 2.48 6.052 2.48 6.052 0.5473333 5.372 0.5473333 5.372 0.0706667 7.208 0.0706667 7.208 0.5473333"></polygon>
                <polygon id="Shape" points="7.6075 2.48 7.6075 0.0706667 8.075 0.0706667 8.075 2.48"></polygon>
                <polygon id="Shape" points="9.639 0.5473333 9.639 2.48 9.163 2.48 9.163 0.5473333 8.5 0.5473333 8.5 0.0706667 10.3275 0.0706667 10.3275 0.5473333"></polygon>
                <path d="M11.628,2.5233333 C11.3525521,2.5284469 11.0886714,2.4105546 10.9056434,2.2006108 C10.7226155,1.9906669 10.6387255,1.7096458 10.676,1.4313333 L10.676,0.0706667 L11.152,0.0706667 L11.152,1.414 C11.152,1.804 11.3305,2.0466667 11.6365,2.0466667 C11.9425,2.0466667 12.121,1.8126667 12.121,1.4226667 L12.121,0.0706667 L12.597,0.0706667 L12.597,1.414 C12.5885,2.1333333 12.2315,2.5233333 11.628,2.5233333 Z" id="Shape"></path>
                <polygon id="Shape" points="14.093 0.5473333 14.093 2.48 13.6 2.48 13.6 0.5473333 12.92 0.5473333 12.92 0.0706667 14.7475 0.0706667 14.7475 0.5473333"></polygon>
                <path d="M15.929,2.5233333 C15.283,2.5233333 14.9005,2.012 14.9005,1.2753333 C14.9005,0.5386667 15.283,0.036 15.929,0.036 C16.575,0.036 17,0.5473333 17,1.2666667 C17,1.986 16.575,2.5233333 15.929,2.5233333 Z M15.929,0.5126667 C15.5465,0.5126667 15.385,0.8506667 15.385,1.2753333 C15.385,1.7 15.5465,2.038 15.929,2.038 C16.3115,2.038 16.473,1.7 16.473,1.2753333 C16.473,0.8506667 16.3115,0.5126667 15.929,0.5126667 Z" id="Shape"></path>
                <path d="M19.6095,0.7726667 C19.5303119,0.6041703 19.3589142,0.5013712 19.176,0.5126667 C18.819,0.5126667 18.615,0.8333333 18.615,1.2753333 C18.615,1.7173333 18.819,2.038 19.176,2.038 C19.3750277,2.0406354 19.5560853,1.9209822 19.635,1.7346667 L20.0345,1.9773333 C19.8862059,2.3184462 19.5502907,2.5342223 19.1845,2.5233333 C18.564,2.5233333 18.1475,2.038 18.1475,1.2753333 C18.114195,0.9658349 18.2089807,0.6561953 18.4090371,0.4209615 C18.6090934,0.1857276 18.8962961,0.0462107 19.2015,0.036 C19.5691353,0.008225 19.9124235,0.225237 20.0515,0.5733333 L19.6095,0.7726667 Z" id="Shape"></path>
                <path d="M21.335,2.5233333 C21.0607983,2.5237344 20.7999898,2.4024888 20.6204687,2.1911595 C20.4409476,1.9798302 20.3604751,1.6993254 20.4,1.4226667 L20.4,0.0706667 L20.876,0.0706667 L20.876,1.414 C20.876,1.804 21.0545,2.0466667 21.3605,2.0466667 C21.6665,2.0466667 21.845,1.8126667 21.845,1.4226667 L21.845,0.0706667 L22.321,0.0706667 L22.321,1.414 C22.2955,2.1333333 21.9385,2.5233333 21.335,2.5233333 Z" id="Shape"></path>
                <polygon id="Shape" points="22.8055 2.48 22.8055 0.0706667 23.2815 0.0706667 23.2815 2.0033333 24.4715 2.0033333 24.4715 2.48"></polygon>
                <polygon id="Shape" points="25.3725 0.5473333 25.3725 2.48 24.8965 2.48 24.8965 0.5473333 24.2165 0.5473333 24.2165 0.0706667 26.044 0.0706667 26.044 0.5473333"></polygon>
                <path d="M27.3615,2.5233333 C27.0845851,2.5310277 26.818345,2.4142519 26.6333919,2.2039773 C26.4484388,1.9937027 26.3634624,1.7111776 26.401,1.4313333 L26.401,0.0706667 L26.877,0.0706667 L26.877,1.414 C26.877,1.804 27.0555,2.0466667 27.3615,2.0466667 C27.6675,2.0466667 27.846,1.8126667 27.846,1.4226667 L27.846,0.0706667 L28.322,0.0706667 L28.322,1.414 C28.322,2.1333333 27.965,2.5233333 27.3615,2.5233333 Z" id="Shape"></path>
                <path d="M30.2005,2.48 L29.7755,1.6133333 L29.2995,1.6133333 L29.2995,2.48 L28.8235,2.48 L28.8235,0.0706667 L29.9285,0.0706667 C30.1450014,0.0340904 30.3661651,0.0986232 30.5309116,0.2464429 C30.6956581,0.3942625 30.7865554,0.6097279 30.7785,0.8333333 C30.807062,1.1478099 30.6209492,1.4414041 30.328,1.544 L30.7785,2.48 L30.2005,2.48 Z M29.92,0.5386667 L29.2995,0.5386667 L29.2995,1.1626667 L29.92,1.1626667 C30.141,1.1626667 30.26,1.0586667 30.26,0.8506667 C30.26,0.6426667 30.1325,0.5386667 29.92,0.5386667 L29.92,0.5386667 Z" id="Shape"></path>
                <path d="M32.6825,2.48 L32.4955,1.9426667 L31.6455,1.9426667 L31.45,2.48 L30.94,2.48 L31.8495,0.0706667 L32.3,0.0706667 L33.201,2.48 L32.6825,2.48 Z M32.181,1.05 C32.13,0.9113333 32.0875,0.764 32.062,0.6773333 C32.062,0.764 31.994,0.9113333 31.943,1.05 L31.79,1.4833333 L32.3,1.4833333 L32.181,1.05 Z" id="Shape"></path>
                <polygon id="Shape" points="33.558 2.48 33.558 0.0706667 34 0.0706667 34 2.0033333 35.19 2.0033333 35.19 2.48"></polygon>
                <path d="M37.4595,1.6306667 L36.941,1.6306667 L36.941,2.4973333 L36.465,2.4973333 L36.465,0.0706667 L37.502,0.0706667 C37.7185014,0.0340904 37.9396651,0.0986232 38.1044116,0.2464429 C38.2691581,0.3942625 38.3600554,0.6097279 38.352,0.8333333 C38.3095,1.3966667 37.944,1.6306667 37.4595,1.6306667 Z M37.4595,0.5386667 L36.9155,0.5386667 L36.9155,1.1626667 L37.468,1.1626667 C37.689,1.1626667 37.808,1.0586667 37.808,0.8506667 C37.808,0.6426667 37.689,0.5386667 37.4765,0.5386667 L37.4595,0.5386667 Z" id="Shape"></path>
                <polygon id="Shape" points="38.675 2.48 38.675 0.0706667 40.3155 0.0706667 40.3155 0.5386667 39.151 0.5386667 39.151 1.0413333 39.831 1.0413333 39.831 1.5093333 39.151 1.5093333 39.151 2.012 40.375 2.012 40.375 2.48"></polygon>
                <polygon id="Shape" points="62.5515 2.48 62.5515 0.0706667 64.192 0.0706667 64.192 0.5386667 63.0275 0.5386667 63.0275 1.0413333 63.7075 1.0413333 63.7075 1.5093333 63.0275 1.5093333 63.0275 2.012 64.2515 2.012 64.2515 2.48"></polygon>
                <polygon id="Shape" points="69.8615 2.48 69.8615 0.0706667 71.502 0.0706667 71.502 0.5386667 70.3375 0.5386667 70.3375 1.0413333 71.0175 1.0413333 71.0175 1.5093333 70.3375 1.5093333 70.3375 2.012 71.5615 2.012 71.5615 2.48"></polygon>
                <path d="M42.16,2.48 L41.735,1.6133333 L41.259,1.6133333 L41.259,2.48 L40.8,2.48 L40.8,0.0706667 L41.905,0.0706667 C42.1215014,0.0340904 42.3426651,0.0986232 42.5074116,0.2464429 C42.6721581,0.3942625 42.7630554,0.6097279 42.755,0.8333333 C42.783562,1.1478099 42.5974492,1.4414041 42.3045,1.544 L42.755,2.48 L42.16,2.48 Z M41.8795,0.5386667 L41.259,0.5386667 L41.259,1.1626667 L41.8795,1.1626667 C42.1005,1.1626667 42.2195,1.0586667 42.2195,0.8506667 C42.2195,0.6426667 42.092,0.5386667 41.8795,0.5386667 L41.8795,0.5386667 Z" id="Shape"></path>
                <path d="M44.0215,2.5233333 C43.7460521,2.5284469 43.4821714,2.4105546 43.2991434,2.2006108 C43.1161155,1.9906669 43.0322255,1.7096458 43.0695,1.4313333 L43.0695,0.0706667 L43.5455,0.0706667 L43.5455,1.414 C43.5455,1.804 43.724,2.0466667 44.03,2.0466667 C44.336,2.0466667 44.5145,1.8126667 44.5145,1.4226667 L44.5145,0.0706667 L44.9905,0.0706667 L44.9905,1.414 C44.982,2.1333333 44.625,2.5233333 44.0215,2.5233333 Z" id="Shape"></path>
                <path d="M46.9455,2.48 L46.75,1.9426667 L45.9,1.9426667 L45.713,2.48 L45.203,2.48 L46.1125,0.0706667 L46.5715,0.0706667 L47.4725,2.48 L46.9455,2.48 Z M46.444,1.05 C46.393,0.9113333 46.3505,0.764 46.325,0.6773333 C46.325,0.764 46.257,0.9113333 46.206,1.05 L46.053,1.4833333 L46.597,1.4833333 L46.444,1.05 Z" id="Shape"></path>
                <path d="M49.3,2.48 L48.45,1.1626667 C48.3905,1.076 48.314,0.9546667 48.2885,0.894 L48.2885,1.4226667 L48.2885,2.48 L47.821,2.48 L47.821,0.0706667 L48.2715,0.0706667 L49.1215,1.3446667 C49.181,1.4313333 49.2575,1.5526667 49.2915,1.6133333 L49.2915,1.0846667 L49.2915,0.0706667 L49.759,0.0706667 L49.759,2.48 L49.3,2.48 Z" id="Shape"></path>
                <path d="M51.1615,2.5233333 C50.5155,2.5233333 50.133,2.012 50.133,1.2753333 C50.133,0.5386667 50.5155,0.036 51.1615,0.036 C51.8075,0.036 52.19,0.5473333 52.19,1.2753333 C52.19,2.0033333 51.85,2.5233333 51.1615,2.5233333 Z M51.1615,0.5126667 C50.779,0.5126667 50.6175,0.8506667 50.6175,1.2753333 C50.6175,1.7 50.779,2.038 51.1615,2.038 C51.544,2.038 51.7055,1.7 51.7055,1.2753333 C51.7055,0.8506667 51.544,0.5126667 51.1615,0.5126667 Z" id="Shape"></path>
                <path d="M54.978,2.48 L54.128,1.1626667 C54.0685,1.076 53.992,0.9546667 53.9665,0.894 L53.9665,1.4226667 L53.9665,2.48 L53.499,2.48 L53.499,0.0706667 L53.9495,0.0706667 L54.7995,1.3446667 C54.859,1.4313333 54.9355,1.5526667 54.9695,1.6133333 L54.9695,1.0846667 L54.9695,0.0706667 L55.437,0.0706667 L55.437,2.48 L54.978,2.48 Z" id="Shape"></path>
                <path d="M56.831,2.5233333 C56.185,2.5233333 55.8025,2.012 55.8025,1.2753333 C55.8025,0.5386667 56.185,0.036 56.831,0.036 C57.477,0.036 57.8595,0.5473333 57.8595,1.2753333 C57.8595,2.0033333 57.477,2.5233333 56.831,2.5233333 Z M56.831,0.5126667 C56.4485,0.5126667 56.287,0.8506667 56.287,1.2753333 C56.287,1.7 56.4485,2.038 56.831,2.038 C57.2135,2.038 57.375,1.7 57.375,1.2753333 C57.375,0.8506667 57.2135,0.5126667 56.831,0.5126667 Z" id="Shape"></path>
                <path d="M59.6275,2.48 L59.2025,1.6133333 L58.7265,1.6133333 L58.7265,2.48 L58.2505,2.48 L58.2505,0.0706667 L59.3555,0.0706667 C59.5720014,0.0340904 59.7931651,0.0986232 59.9579116,0.2464429 C60.1226581,0.3942625 60.2135554,0.6097279 60.2055,0.8333333 C60.234062,1.1478099 60.0479492,1.4414041 59.755,1.544 L60.2055,2.48 L59.6275,2.48 Z M59.347,0.5386667 L58.7265,0.5386667 L58.7265,1.1626667 L59.347,1.1626667 C59.568,1.1626667 59.687,1.0586667 59.687,0.8506667 C59.687,0.6426667 59.5595,0.5386667 59.347,0.5386667 L59.347,0.5386667 Z" id="Shape"></path>
                <polygon id="Shape" points="61.506 0.5473333 61.506 2.48 61.03 2.48 61.03 0.5473333 60.35 0.5473333 60.35 0.0706667 62.1775 0.0706667 62.1775 0.5473333"></polygon>
                <path d="M66.2405,2.48 L66.0535,1.9426667 L65.2035,1.9426667 L65.0165,2.48 L64.5065,2.48 L65.416,0.0706667 L65.875,0.0706667 L66.776,2.48 L66.2405,2.48 Z M65.739,1.05 C65.688,0.9113333 65.6455,0.764 65.62,0.6773333 C65.62,0.764 65.552,0.9113333 65.501,1.05 L65.348,1.4833333 L65.892,1.4833333 L65.739,1.05 Z" id="Shape"></path>
                <path d="M68.85,2.48 L68.85,1.6133333 L68.85,1.0846667 C68.85,1.1713333 68.748,1.3446667 68.6885,1.4833333 L68.2125,2.558 L67.7365,1.4833333 C67.677,1.3446667 67.6005,1.1713333 67.575,1.0846667 L67.575,1.6133333 L67.575,2.48 L67.15,2.48 L67.15,0.0706667 L67.609,0.0706667 L68.102,1.1626667 C68.1615,1.3013333 68.2295,1.4833333 68.2635,1.57 C68.2635,1.4833333 68.3655,1.3013333 68.425,1.1626667 L68.85,0.0706667 L69.3175,0.0706667 L69.3175,2.48 L68.85,2.48 Z" id="Shape"></path>
                <path d="M73.355,2.48 L72.93,1.6133333 L72.454,1.6133333 L72.454,2.48 L71.978,2.48 L71.978,0.0706667 L73.1,0.0706667 C73.3165014,0.0340904 73.5376651,0.0986232 73.7024116,0.2464429 C73.8671581,0.3942625 73.9580554,0.6097279 73.95,0.8333333 C73.978562,1.1478099 73.7924492,1.4414041 73.4995,1.544 L73.95,2.48 L73.355,2.48 Z M73.1,0.5386667 L72.4795,0.5386667 L72.4795,1.1626667 L73.1,1.1626667 C73.321,1.1626667 73.44,1.0586667 73.44,0.8506667 C73.44,0.6426667 73.287,0.5386667 73.1,0.5386667 Z" id="Shape"></path>
                <polygon id="Shape" points="74.358 2.48 74.358 0.0706667 74.8 0.0706667 74.8 2.48"></polygon>
                <path d="M76.738,0.7726667 C76.6588119,0.6041703 76.4874142,0.5013712 76.3045,0.5126667 C75.9475,0.5126667 75.7435,0.8333333 75.7435,1.2753333 C75.7435,1.7173333 75.9475,2.038 76.3045,2.038 C76.5035277,2.0406354 76.6845853,1.9209822 76.7635,1.7346667 L77.163,1.9773333 C77.0147059,2.3184462 76.6787907,2.5342223 76.313,2.5233333 C75.6925,2.5233333 75.276,2.038 75.276,1.2753333 C75.242695,0.9658349 75.3374807,0.6561953 75.5375371,0.4209615 C75.7375934,0.1857276 76.0247961,0.0462107 76.33,0.036 C76.6943918,0.0212281 77.0309429,0.2339812 77.18,0.5733333 L76.738,0.7726667 Z" id="Shape"></path>
                <path d="M79.05,2.48 L78.863,1.9426667 L78.013,1.9426667 L77.826,2.48 L77.35,2.48 L78.2595,0.0706667 L78.7185,0.0706667 L79.6195,2.48 L79.05,2.48 Z M78.5485,1.05 C78.4975,0.9113333 78.455,0.764 78.4295,0.6773333 C78.4295,0.764 78.3615,0.9113333 78.3105,1.05 L78.1575,1.4833333 L78.7015,1.4833333 L78.5485,1.05 Z" id="Shape"></path>
                <path d="M81.4555,2.48 L80.6055,1.1626667 C80.546,1.076 80.4695,0.9546667 80.444,0.894 L80.444,1.4226667 L80.444,2.48 L79.9765,2.48 L79.9765,0.0706667 L80.427,0.0706667 L81.277,1.3446667 C81.3365,1.4313333 81.413,1.5526667 81.4385,1.6133333 L81.4385,1.0846667 L81.4385,0.0706667 L81.906,0.0706667 L81.906,2.48 L81.4555,2.48 Z" id="Shape"></path>
                <path d="M83.3,2.5233333 C82.654,2.5233333 82.2715,2.012 82.2715,1.2753333 C82.2715,0.5386667 82.654,0.036 83.3,0.036 C83.946,0.036 84.3285,0.5473333 84.3285,1.2753333 C84.3285,2.0033333 83.946,2.5233333 83.3,2.5233333 Z M83.3,0.5126667 C82.9175,0.5126667 82.756,0.8506667 82.756,1.2753333 C82.756,1.7 82.9175,2.038 83.3,2.038 C83.6825,2.038 83.844,1.7 83.844,1.2753333 C83.844,0.8506667 83.6825,0.5126667 83.3,0.5126667 Z" id="Shape"></path>
            </g>
            <g id="icpna">
                <polygon id="Shape" fill="#C5271A" points="75.514 9.126 74.018 13.1733333 76.5935 20.124 79.577 20.124"></polygon>
                <polygon id="Shape" fill="#C5271A" points="81.3365 20.124 84.32 20.124 77.8685 2.756 76.3895 6.76"></polygon>
                <rect id="Rectangle-path" fill="#294A95" x="0.0085" y="1.23933333" width="5.355" height="18.8846667"></rect>
                <path d="M21.42,13.3033333 L21.3775,13.364 C20.4373838,14.761423 18.8829925,15.5976119 17.221,15.6 C14.7305,15.6 12.852,13.4853333 12.852,10.6773333 L12.852,10.6253333 C12.852,7.852 14.7305,5.75466667 17.221,5.75466667 C18.8310667,5.7601266 20.3363328,6.56961027 21.25,7.92133333 L21.301,7.982 L25.313,4.862 L25.2705,4.80133333 C23.4378506,2.18366476 20.4220961,0.700137974 17.272,0.866666667 C11.628,0.866666667 7.361,5.08733333 7.361,10.686 L7.361,10.738 C7.33321078,13.3663515 8.35859733,15.8924359 10.2,17.732 C12.0467894,19.5336366 14.5122121,20.5260757 17.068,20.4966667 C20.3832911,20.6603212 23.5417193,19.046856 25.398,16.2413333 L25.449,16.172 L21.42,13.3033333 Z" id="Shape" fill="#294A95"></path>
                <path d="M35.1645,1.23933333 L26.35,1.23933333 L26.35,20.124 L32.3765,20.124 L32.3765,14.7333333 L34.8585,14.7333333 C39.8565,14.7333333 42.959,12.1333333 42.959,7.91266667 L42.959,7.904 C42.993,3.796 39.9925,1.23933333 35.1645,1.23933333 Z M37.672,8.034 C37.672,9.49 36.567,10.2266667 34.7905,10.2266667 L32.419,10.2266667 L32.419,5.59866667 L34.765,5.59866667 C36.635,5.59866667 37.672,6.46533333 37.672,7.982 L37.672,8.034 Z" id="Shape" fill="#294A95"></path>
                <polygon id="Shape" fill="#294A95" points="57.1285 1.23933333 57.1285 10.9893333 49.589 1.274 49.5635 1.23933333 44.625 1.23933333 44.625 20.124 49.9035 20.124 49.9035 10.0013333 57.732 20.098 57.749 20.124 62.2455 20.124 62.2455 1.23933333"></polygon>
                <path d="M70.55,1.21333333 L63.5375,20.124 L70.278,20.124 L77.299,1.21333333 L70.55,1.21333333 Z M69.1985,16.8133333 L69.7595,18.5466667 L68.289,17.4546667 L66.8185,18.5466667 L67.3795,16.8133333 L65.909,15.7213333 L67.728,15.7213333 L68.289,13.988 L68.85,15.7213333 L70.669,15.7213333 L69.1985,16.8133333 Z M71.9015,12.8006667 L70.465,11.7173333 L68.9945,12.8093333 L69.5555,11.076 L68.085,9.984 L69.904,9.984 L70.465,8.25066667 L71.026,9.984 L72.845,9.984 L71.4,11.0413333 L71.9015,12.8006667 Z M72.59,5.86733333 L71.1535,6.994 L71.7145,5.26066667 L70.244,4.134 L72.063,4.134 L72.624,2.40066667 L73.185,4.134 L75.004,4.134 L73.542,5.2 L74.103,6.93333333 L72.59,5.86733333 Z" id="Shape" fill="#294A95"></path>
            </g>
        </g>
    </g>
</svg>